HIERARCHY
ROOT Hips
{
  OFFSET 2.26061 22.2878 23.7974
  CHANNELS 6 Xposition Yposition Zposition Zrotation Xrotation Yrotation
  JOINT LeftUpLeg
  {
    OFFSET 8.64259 1.95398 -2.38835
    CHANNELS 3 Zrotation Xrotation Yrotation
    JOINT LeftLeg
    {
      OFFSET 43.7702 0 0
      CHANNELS 3 Zrotation Xrotation Yrotation
      JOINT LeftFoot
      {
        OFFSET 40.6238 0 0
        CHANNELS 3 Zrotation Xrotation Yrotation
        JOINT LeftToeBase
        {
          OFFSET 12.7242 0 0
          CHANNELS 3 Zrotation Xrotation Yrotation
          End Site
          {
            OFFSET 0 0 0
          }
        }
      }
    }
  }
  JOINT RightUpLeg
  {
    OFFSET -8.2249 1.95398 -2.59336
    CHANNELS 3 Zrotation Xrotation Yrotation
    JOINT RightLeg
    {
      OFFSET 43.5653 0 0
      CHANNELS 3 Zrotation Xrotation Yrotation
      JOINT RightFoot
      {
        OFFSET 40.6238 0 0
        CHANNELS 3 Zrotation Xrotation Yrotation
        JOINT RightToeBase
        {
          OFFSET 12.7242 0 0
          CHANNELS 3 Zrotation Xrotation Yrotation
          End Site
          {
            OFFSET 0 0 0
          }
        }
      }
    }
  }
  JOINT Spine
  {
    OFFSET 0.165834 0.87714 6.61349
    CHANNELS 3 Zrotation Xrotation Yrotation
    JOINT Spine1
    {
      OFFSET 7.38963 1.71661e-005 0
      CHANNELS 3 Zrotation Xrotation Yrotation
      JOINT Spine2
      {
        OFFSET 11.9445 1.14441e-005 0
        CHANNELS 3 Zrotation Xrotation Yrotation
        JOINT Spine3
        {
          OFFSET 14.7254 4.19617e-005 0
          CHANNELS 3 Zrotation Xrotation Yrotation
          JOINT Spine4
          {
            OFFSET 10.9679 0 0
            CHANNELS 3 Zrotation Xrotation Yrotation
            JOINT RightShoulder
            {
              OFFSET 2.46616 -1.6653 3.69651
              CHANNELS 3 Zrotation Xrotation Yrotation
              JOINT RightArm
              {
                OFFSET 13.0012 0 0
                CHANNELS 3 Zrotation Xrotation Yrotation
                JOINT RightForeArm
                {
                  OFFSET 28.7848 1.52588e-005 0
                  CHANNELS 3 Zrotation Xrotation Yrotation
                  JOINT RightHand
                  {
                    OFFSET 26.5688 1.52588e-005 0
                    CHANNELS 3 Zrotation Xrotation Yrotation
                    End Site
                    {
                      OFFSET 0 0 0
                    }
                  }
                }
              }
            }
            JOINT LeftShoulder
            {
              OFFSET 2.38034 -1.29275 -3.7523
              CHANNELS 3 Zrotation Xrotation Yrotation
              JOINT LeftArm
              {
                OFFSET 16.3182 6.10351e-005 0
                CHANNELS 3 Zrotation Xrotation Yrotation
                JOINT LeftForeArm
                {
                  OFFSET 27.0901 0 0
                  CHANNELS 3 Zrotation Xrotation Yrotation
                  JOINT LeftHand
                  {
                    OFFSET 24.5451 1.52588e-005 0
                    CHANNELS 3 Zrotation Xrotation Yrotation
                    End Site
                    {
                      OFFSET 0 0 0
                    }
                  }
                }
              }
            }
            JOINT Neck
            {
              OFFSET 5.0226 -0.0266342 0
              CHANNELS 3 Zrotation Xrotation Yrotation
              JOINT Head
              {
                OFFSET 6.69363 2.86102e-005 0
                CHANNELS 3 Zrotation Xrotation Yrotation
                End Site
                {
                  OFFSET 0 0 0
                }
              }
            }
          }
        }
      }
    }
  }
}
MOTION
Frames:	18
Frame Time:	0.0416667
51.1109 86.9454 -307.554 4.08592 -13.6639 17.9517 172.774 62.4798 103.028 -34.7606 22.2772 2.99228 31.0933 -24.3155 -17.3467 104.486 21.7075 -52.4704 35.5399 67.0616 -143.921 -91.5368 43.711 29.0677 52.6624 15.939 21.5659 39.3253 2.99055 73.2485 -0.54897 0.73541 -88.0297 25.3842 0.0972393 4.0711 13.707 0.276167 4.0629 -8.77981 -1.12983 3.91264 11.2328 -1.12984 3.91263 -158.021 -57.4728 36.8845 -29.7397 10.4646 33.5888 -161.2 31.9096 -121.377 -48.6519 -10.1636 32.2619 -97.3382 -16.4748 51.1105 -27.6645 30.6927 8.3666 7.38014 -9.65603 -104.596 35.3131 0.589155 -2.37846 25.6969 -27.7623 -59.2548 -10.4479 -8.71863 44.9475 
48.0952 90.3944 -307.843 10.8214 -34.6627 8.87283 -177.056 30.6927 85.7572 -13.2611 24.089 1.64868 17.4464 -21.58 -21.814 107.346 28.2045 -44.5447 102.949 83.7444 151.397 -70.6343 15.4524 14.4236 65.2553 3.09082 5.24061 61.1327 8.43925 25.1364 -0.387604 2.96745 -88.5338 20.9093 0.0629668 3.06788 9.23471 0.197865 3.06215 -13.2727 -0.861546 2.9452 6.7399 -0.861538 2.9452 165.75 -64.6718 -3.78446 -13.2091 -7.80006 31.7969 -164.814 15.2299 -119.197 -52.1268 -11.0712 31.7628 -100.213 -32.8497 56.1134 -22.4925 33.0103 8.11846 10.9311 -13.0181 -109.977 34.0534 0.89108 -1.39096 30.3335 -16.5328 -34.0209 -14.4838 -5.66138 30.0485 
46.0555 91.2724 -307.313 10.3599 -58.5426 1.00529 -178.975 1.41525 90.2662 -6.00106 26.657 0.895666 17.4019 -18.5415 -18.8974 103.437 35.8192 -31.0699 173.519 65.8863 88.8709 -63.5874 -3.77362 -0.267234 72.2002 -2.91439 -1.6156 51.7251 -0.115907 -7.32799 -0.648364 5.35981 -88.8263 16.1547 -0.688451 2.44897 4.48151 -0.580033 2.47686 -18.04 -1.39249 2.12909 1.97266 -1.39249 2.12909 118.272 -61.6384 -60.3315 10.0746 -16.3102 38.8243 -169.433 0.471431 -119.404 -59.404 -11.7042 30.562 -100.215 -43.0853 60.9694 -23.8515 31.1115 10.5538 12.692 -12.3707 -107.821 34.9886 1.06238 -0.958898 18.63 -2.80512 -11.8649 -3.01752 0.56589 12.1877 
46.5139 90.8714 -305.167 8.26015 -76.3648 5.03622 -175.131 -3.52864 91.9086 -31.8432 23.1629 1.78814 34.7777 -12.4495 -10.408 95.9407 35.1356 -25.9511 171.93 45.6876 94.8715 -61.5364 -6.00711 0.688307 64.9782 -2.08558 -1.07679 49.6833 -0.143761 -10.2895 -0.94765 7.36752 -89.8048 12.1564 -1.79068 0.575472 0.486633 -1.76361 0.653731 -22.0595 -1.88085 0.0104999 -2.04688 -1.88085 0.0105042 98.8833 -55.219 -86.7635 21.7981 -14.583 38.9113 -166.327 -8.45413 -114.462 -68.6514 -7.29219 19.7286 -98.4001 -47.0952 65.2988 -26.0917 26.2273 11.9253 9.9967 -7.80581 -100.496 35.04 1.14837 -0.711693 10.799 2.31063 -1.36565 5.22113 2.94433 5.13386 
47.1785 90.211 -299.859 35.9895 -81.6495 35.4146 -176.169 5.4879 92.3266 -56.7143 15.0985 3.74071 45.1465 -7.78512 -3.75354 90.4502 32.6565 -25.0417 169.944 32.4177 96.1922 -59.3565 -1.59755 2.92509 71.8593 -5.02662 -2.55339 42.6683 0.630822 -1.10752 -1.36796 8.1548 -90.1952 10.565 -2.81427 -0.135278 -1.10288 -2.8175 -0.0111854 -23.6603 -2.64342 -0.975421 -3.64762 -2.64342 -0.975423 93.8484 -54.9329 -94.1437 22.2885 -13.2544 33.1811 -160.892 -11.629 -110.211 -70.747 -2.5317 11.3914 -97.8145 -49.1789 66.9011 -27.2144 22.0567 13.3837 6.89483 -4.6342 -89.7607 33.5602 1.04518 -0.868631 6.51716 2.93387 0.847796 10.074 3.2128 3.89609 
47.42 88.8968 -293.366 25.0386 -80.5354 25.8368 -176.214 19.857 92.9552 -71.7274 9.20261 2.89369 49.5918 -4.53367 2.62275 79.9311 29.6387 -19.5891 172.633 28.6153 98.2771 -58.8153 0.949348 1.95587 78.1182 -7.6089 -3.4386 43.4967 0.549424 -3.01474 -0.913103 7.99694 -90.4122 10.8747 -2.00851 -0.630747 -0.794794 -2.03434 -0.541728 -23.3384 -1.72609 -1.20536 -3.32571 -1.72608 -1.20536 95.1216 -54.9986 -92.2775 21.1026 -12.8712 24.3818 -156.786 -11.2227 -108.172 -64.0933 -0.223007 7.59234 -99.2238 -51.1441 65.5329 -27.5253 19.6358 14.9214 7.06834 -0.810333 -79.3586 36.9368 2.1813 2.024 6.95283 1.68496 3.37601 10.4397 1.21305 1.1326 
48.0229 88.1778 -286.464 -9.7812 -76.4473 -7.2712 -172.64 36.4708 93.5619 -80.4487 4.13994 1.38009 51.9769 -2.79587 2.20909 55.7931 20.18 -2.52383 177.831 27.2384 100.542 -55.6288 0.92788 -0.883243 79.8946 -9.45551 -4.10597 47.7222 0.661046 -2.74801 0.063956 7.62664 -90.4964 11.614 -0.105541 -0.982461 -0.0575505 -0.148674 -0.976872 -22.5878 0.19456 -0.96878 -2.57513 0.194565 -0.968779 93.4275 -53.4923 -94.9857 21.3396 -9.58147 15.9976 -153.169 -8.24239 -105.88 -54.0567 1.14143 4.39491 -100.361 -53.5362 64.7637 -26.7151 16.7499 17.7036 5.49221 1.02183 -71.4301 41.4943 1.98343 0.755467 11.3743 0.512665 5.36658 6.98703 -0.702967 -0.645305 
47.1173 88.0386 -279.026 -21.3263 -75.6589 -23.3384 -167.838 45.4218 88.5412 -81.2533 5.91651 -0.132042 53.1588 -2.32331 2.02773 40.9983 10.7013 13.9742 179.504 20.5505 96.6166 -52.6721 0.0666189 -3.51869 81.7195 -10.4917 -4.37698 49.6577 0.669675 -3.15402 0.528888 7.67491 -89.8509 11.5321 1.1222 0.187103 -0.138157 1.12935 0.137507 -22.6778 1.01407 0.515763 -2.66512 1.01407 0.515752 92.9702 -49.441 -96.3593 25.8149 -8.24905 9.17636 -146.336 -6.25522 -101.501 -47.4981 3.41881 -2.46125 -99.778 -53.9064 65.7034 -28.3914 15.0774 25.8811 0.00736588 -1.59003 -73.7985 40.0526 1.82402 0.548322 13.7365 -0.253294 7.22602 4.94245 -2.1292 -2.75281 
46.6404 89.194 -270.551 -28.0621 -76.1296 -32.6548 -165.674 49.5117 86.0252 -74.4284 11.0183 -1.66314 54.2749 -2.42847 2.50181 41.7293 11.6921 16.7668 179.4 11.8633 93.2543 -47.5109 -4.77926 -5.81355 74.2471 -7.46824 -3.62916 56.9127 1.01146 -2.2051 0.992225 7.68049 -89.438 11.5048 2.23685 0.891087 -0.164491 2.27391 0.791749 -22.7087 1.86563 1.5223 -2.69607 1.86563 1.52229 93.7069 -46.5529 -95.7091 29.2071 -8.89563 4.40554 -129.169 -0.216422 -95.008 -41.8277 7.65416 -16.9636 -96.847 -52.2109 69.2921 -32.0235 15.5222 34.4838 2.54181 -1.80802 -79.2435 39.006 1.91628 0.940593 11.9607 -2.13687 7.79811 5.54355 -4.12231 -4.26032 
46.8233 91.3672 -260.704 -35.3598 -75.0228 -39.5939 -165.981 50.487 87.7927 -60.9029 14.7468 -3.43875 54.1094 -3.75477 1.44431 44.1298 13.9248 14.9379 179.617 4.4864 91.0414 -40.4634 -11.3857 -7.76945 63.0339 -3.37072 -1.82601 52.239 1.71942 3.95402 1.45468 7.61963 -89.4202 11.6277 3.16531 0.824933 -0.039519 3.19855 0.684689 -22.5979 2.77098 1.7387 -2.58524 2.77097 1.73868 94.2196 -43.5844 -95.3942 30.0933 -12.6479 -0.459272 -99.7636 2.92002 -93.0006 -39.9343 12.3965 -31.5678 -94.6875 -51.4005 72.1656 -35.4383 15.8934 40.2678 1.66968 -2.52761 -81.4959 38.0171 1.4411 -0.181787 12.7793 -3.29185 10.3601 4.49394 -6.00474 -6.58329 
47.4531 93.5404 -250.148 -28.2216 -75.2211 -34.4787 -168.579 48.4685 86.1365 -41.9062 16.747 -4.46471 50.7482 -6.51672 -0.875141 40.8004 10.3639 12.5871 176.485 0.192119 86.7425 -34.9851 -22.112 -9.08698 44.4555 4.23654 3.85993 45.0096 0.72404 -2.01086 1.51393 7.45255 -89.1502 11.9501 3.41073 1.32703 0.283094 3.46584 1.17549 -22.2735 2.85423 2.29126 -2.2609 2.85423 2.29125 94.4246 -42.6942 -95.209 29.8949 -17.1386 -2.35223 -65.4618 6.69471 -95.3889 -33.4529 11.7879 -37.7098 -95.5465 -49.5083 70.3498 -38.789 13.0234 44.5753 -0.715886 -2.96489 -81.707 39.5727 0.542253 -2.73071 13.1792 -4.53934 10.7008 2.94374 -7.33953 -8.1655 
47.9314 94.9518 -239.729 -23.0512 -76.3041 -28.558 -171.681 43.8506 87.1112 -22.2591 19.6654 -4.11969 44.9197 -10.3113 -3.99352 39.2718 8.90803 12.9603 175.482 -4.0029 86.7048 -34.0917 -22.28 -9.72086 35.9841 7.29885 7.69625 33.901 0.431272 -9.07336 1.61834 7.37432 -89.2319 12.1105 3.58012 1.13778 0.44409 3.62672 0.978917 -22.118 3.0726 2.16188 -2.10538 3.0726 2.16189 94.6379 -42.3224 -94.9115 29.1104 -20.9072 -2.48126 -38.1353 5.50277 -99.8759 -29.371 7.02818 -28.2947 -95.9737 -47.9065 69.2132 -41.3584 11.0771 46.4128 -0.672554 -2.97771 -82.2434 39.3883 0.510318 -2.79378 13.3005 -5.58822 11.4544 1.97172 -8.55065 -9.63783 
48.4007 95.0046 -229.381 -19.0836 -76.5833 -22.2948 -171.576 42.2284 88.2923 -15.628 15.1635 -4.69925 45.0906 -10.1551 -5.47539 44.5243 13.8559 11.8318 176.568 -3.47031 88.1227 -40.2232 -8.87826 -7.62559 39.1809 5.04559 5.18407 30.7559 0.379304 -5.95666 1.68734 7.20437 -89.4503 12.4591 3.61404 0.682782 0.793124 3.64059 0.522864 -21.7746 3.2416 1.73841 -1.76196 3.24161 1.73842 94.6891 -42.6677 -94.7649 29.0698 -22.3781 -0.998646 -23.7367 2.77423 -98.8654 -27.008 2.77976 -15.5541 -94.894 -48.0954 70.894 -41.1021 10.1588 45.8025 -2.89008 -3.4967 -83.2927 37.0118 0.168276 -3.64676 12.8615 -6.55919 8.74865 2.1327 -8.74253 -7.40682 
48.658 94.1972 -219.482 -14.5115 -79.3999 -16.2561 -169.495 38.7891 87.6159 -18.8125 11.8511 -5.53479 45.1829 -9.82596 -7.85809 45.7568 15.0714 11.954 177.315 -1.53242 89.0479 -52.3915 1.84242 -6.04174 42.4377 3.20415 3.27684 26.7246 0.385457 -5.75438 1.52637 7.28929 -89.6471 12.2947 3.20077 0.342947 0.627631 3.21277 0.201597 -21.9351 2.94961 1.28987 -1.92244 2.94959 1.28985 94.0394 -44.1861 -95.587 28.8353 -20.344 2.13465 -21.6142 -1.62682 -94.2582 -25.9587 -0.194032 -3.61167 -95.1216 -50.0282 71.1356 -38.6997 8.91632 43.1876 -3.01125 -3.51727 -82.3897 35.3216 -0.0441107 -4.23337 10.352 -6.62636 7.81524 3.26235 -8.50666 -7.19392 
48.5484 92.7161 -210.272 -14.1945 -82.7993 -15.4958 -167.566 36.1688 86.8748 -31.531 17.4612 -7.01658 59.2047 -0.0756809 3.0971 31.993 2.3562 3.41157 177.527 2.22063 91.9604 -68.28 7.50112 -4.27794 45.4147 1.02723 1.24295 25.4372 0.460073 -6.60406 1.34788 7.46004 -89.7023 11.9521 2.82034 0.288053 0.284186 2.83028 0.163538 -22.2724 2.60331 1.12294 -2.25977 2.60329 1.12291 93.2661 -46.2 -96.4831 29.2725 -18.2237 6.20639 -18.7158 -6.3935 -87.2917 -24.828 -0.557933 -1.99162 -96.0598 -52.0279 70.3652 -35.1668 8.25186 39.0248 -4.12773 -3.61111 -80.3443 34.8316 0.0689522 -3.88721 6.36718 -6.44972 6.80156 5.55515 -8.08252 -7.33374 
47.9593 91.0135 -201.647 4.86306 -84.4548 0.59323 -167.047 33.8599 83.2079 -42.9026 13.3923 -6.14976 67.1891 7.84271 6.39659 30.8105 1.55206 0.602613 176.546 12.978 88.2294 -83.3814 12.8331 -2.82665 44.4914 -0.593141 -0.0496511 31.3166 0.277101 -3.47848 0.874865 7.64382 -89.2712 11.5762 2.0817 1.2393 -0.093534 2.13423 1.14646 -22.6329 1.61303 1.80764 -2.62027 1.61303 1.80764 93.7587 -49.214 -95.1748 28.4299 -16.8047 7.43692 -16.4646 -12.0588 -76.6365 -22.3867 -0.427975 -2.37323 -97.8855 -53.5088 68.2251 -30.479 8.0003 32.0107 -3.74971 -3.35401 -78.0863 36.0831 0.917349 -1.4897 4.65496 -6.07928 3.17699 8.33263 -7.03281 -5.42106 
47.3874 89.791 -193.023 38.5849 -83.7026 31.1176 -169.106 29.7611 80.2166 -47.8879 13.6002 -4.63953 70.5167 12.4147 9.60225 36.0757 5.73867 0.717465 175.291 24.6672 86.7877 -92.5753 12.5552 -2.09504 48.3184 -2.44002 -1.56489 33.0448 0.291274 -2.87913 0.271126 7.79905 -88.8291 11.2599 1.08464 2.22399 -0.41241 1.18144 2.17412 -22.933 0.366313 2.44702 -2.92032 0.366309 2.447 93.3836 -51.3889 -95.3868 28.7796 -14.7832 10.0507 -14.2284 -17.0145 -67.478 -27.3742 -1.13017 0.411838 -100.703 -53.2818 64.1956 -25.3997 9.10736 22.9487 -3.09508 -2.89664 -74.9756 39.0417 1.30575 -0.677265 4.19377 -6.15698 0.380692 10.0647 -6.60416 -4.0964 
47.7592 89.8341 -184.394 37.5109 -84.4663 32.1063 -170.908 24.5045 82.6427 -50.1654 14.4852 -2.82346 71.3403 13.9174 11.2138 41.494 10.2634 3.8479 175.96 34.1592 89.3973 -92.4151 10.8271 -1.85971 53.1495 -3.46767 -2.26118 38.9503 0.37919 -5.66114 0.0574045 7.78794 -89.0258 11.2888 0.567939 1.88306 -0.383348 0.650256 1.85625 -22.9076 -0.0241378 1.96666 -2.89494 -0.0241343 1.96667 93.138 -52.9825 -95.4938 27.6983 -15.1938 14.2712 -11.648 -19.9754 -61.6559 -28.0284 -1.87241 3.26511 -100.172 -52.0094 64.489 -23.2939 8.38397 16.6612 1.20553 -1.70923 -77.0019 38.2516 1.53588 0.0203518 2.7476 -4.8488 0.0886686 10.6439 -5.23966 -3.60163 
